<svg width="500" height="500" viewBox="0 0 500 500" fill="none" xmlns="http://www.w3.org/2000/svg">
<g clip-path="url(#clip0_2467_2)">
<path fill-rule="evenodd" clip-rule="evenodd" d="M250 500C388.071 500 500 388.071 500 250C500 111.929 388.071 0 250 0C111.929 0 0 111.929 0 250C0 388.071 111.929 500 250 500ZM157.843 181.341C150 195.134 150 213.589 150 250.5C150 287.411 150 305.867 157.843 319.659C163.181 329.047 170.954 336.819 180.341 342.157C194.133 350 212.589 350 249.5 350C286.411 350 304.867 350 318.659 342.157C328.046 336.819 335.819 329.047 341.157 319.659C349 305.867 349 287.411 349 250.5C349 213.589 349 195.134 341.157 181.341C335.819 171.954 328.046 164.181 318.659 158.843C304.867 151 286.411 151 249.5 151C212.589 151 194.133 151 180.341 158.843C170.954 164.181 163.181 171.954 157.843 181.341Z" fill="url(#paint0_radial_2467_2)"/>
</g>
<defs>
<radialGradient id="paint0_radial_2467_2" cx="0" cy="0" r="1" gradientUnits="userSpaceOnUse" gradientTransform="translate(250 250) rotate(90) scale(250)">
<stop offset="0.338542" stop-color="#FF5900"/>
<stop offset="1" stop-color="white" stop-opacity="0"/>
</radialGradient>
<clipPath id="clip0_2467_2">
<rect width="500" height="500" fill="white"/>
</clipPath>
</defs>
</svg>
